<?xml version="1.0" encoding="iso-8859-1"?>
<!-- Generator: Adobe Illustrator 19.0.0, SVG Export Plug-In . SVG Version: 6.00 Build 0)  -->
<svg version="1.1" id="Layer_1" xmlns="http://www.w3.org/2000/svg" xmlns:xlink="http://www.w3.org/1999/xlink" x="0px" y="0px"
	 viewBox="0 0 512 512" style="enable-background:new 0 0 512 512;" xml:space="preserve">
<path style="fill:#AEB9CC;" d="M365.095,89.888c0.926,0.857,1.881,1.664,2.846,2.462H74.526c-11.707,0-22.302-4.746-29.982-12.416
	c-7.67-7.68-12.416-18.274-12.416-29.982c0-23.414,18.983-42.398,42.398-42.398h297.157c-2.363,1.674-4.578,3.515-6.587,5.524
	c-4.667,4.667-8.753,10.801-11.628,17.457c-2.924,6.784-4.588,14.11-4.283,20.943C349.814,65.529,354.432,80.101,365.095,89.888z"/>
<path style="fill:#C8D0E2;" d="M367.941,92.35H84.322c-3.003-5.819-4.697-12.426-4.697-19.417c0-23.414,18.983-42.398,42.398-42.398
	h231.444c-2.924,6.784-4.588,14.11-4.283,20.943c0.63,14.05,5.248,28.623,15.911,38.41C366.021,90.745,366.976,91.552,367.941,92.35
	z"/>
<path style="fill:#EDF3F9;" d="M320.182,80.002H131.094c-6.641,0-12.025-5.384-12.025-12.025l0,0
	c0-6.641,5.384-12.025,12.025-12.025h189.089c6.641,0,12.025,5.384,12.025,12.025l0,0C332.207,74.618,326.823,80.002,320.182,80.002
	z"/>
<path style="fill:#3C6F99;" d="M384.276,93.502V505.17H70.804c-8.399,0-15.783-3.426-21.868-7.936
	c-11.717-8.694-18.599-21.425-18.599-21.425V70.718c5.022,7.257,11.924,12.268,18.599,15.705c11.244,5.78,21.868,7.079,21.868,7.079
	H384.276z"/>
<path style="fill:#6598CB;" d="M384.276,172.084V505.17H128.197V359.387c0-103.445,83.859-187.302,187.302-187.302L384.276,172.084
	L384.276,172.084z"/>
<path style="fill:#579E2E;" d="M478.69,381.138c0,67.033-54.341,121.364-121.364,121.364c-20.145,0-39.148-4.903-55.867-13.598
	c-38.922-20.214-65.497-60.879-65.497-107.766c0-67.023,54.331-121.354,121.364-121.354c46.887,0,87.562,26.585,107.776,65.506
	C473.787,342.009,478.69,361.002,478.69,381.138z"/>
<path style="fill:#75BF4D;" d="M478.69,381.138c0,67.033-54.341,121.364-121.364,121.364c-20.145,0-39.148-4.903-55.867-13.598
	c-8.684-16.719-13.588-35.702-13.588-55.847c0-67.033,54.331-121.364,121.364-121.364c20.145,0,39.138,4.913,55.867,13.598
	C473.787,342.009,478.69,361.002,478.69,381.138z"/>
<rect x="134.282" y="178.028" style="fill:#AEB9CC;" width="196.697" height="55.66"/>
<path style="fill:#C8D0E2;" d="M330.978,205.866v27.825H167.818l0,0c0-15.368,12.457-27.825,27.825-27.825H330.978z"/>
<rect x="53.642" y="89.029" style="fill:#6598CB;" width="6.932" height="413.479"/>
<path style="fill:#98C0E2;" d="M44.401,86.422v410.811c-8.861-8.694-14.065-21.425-14.065-21.425V70.718
	C34.134,77.974,39.353,82.986,44.401,86.422z"/>
<polygon points="355.495,195.63 370.265,195.63 370.265,111.49 256.232,111.49 256.232,126.259 355.495,126.259 "/>
<rect x="218.713" y="111.488" width="18.757" height="14.769"/>
<rect x="90.683" y="327.778" width="14.769" height="97.073"/>
<rect x="79.232" y="55.952" width="16.837" height="14.769"/>
<path d="M339.402,172.086H128.788v69.377h210.614L339.402,172.086L339.402,172.086z M324.633,226.694H143.557v-39.839h181.076
	L324.633,226.694L324.633,226.694z"/>
<path d="M489.75,380.588c0-59.509-39.766-109.898-94.116-126.011V86.121h-5.321c-19.672,0-35.676-16.004-35.676-35.676
	s16.004-35.676,35.676-35.676V0H72.695C44.88,0,22.25,22.629,22.25,50.445v411.109c0,25.307,18.734,46.315,43.06,49.899V512h297.325
	v-0.078C433.115,509.646,489.75,451.611,489.75,380.588z M358.339,497.231c-64.317,0-116.642-52.325-116.642-116.642
	s52.325-116.641,116.642-116.641c64.316,0,116.641,52.325,116.641,116.641S422.655,497.231,358.339,497.231z M37.02,461.555V86.075
	c7.49,7.499,17.322,12.653,28.291,14.27v396.113C49.171,493.046,37.02,478.695,37.02,461.555z M37.02,50.445
	c0-19.672,16.004-35.676,35.676-35.676h281.986c-4.409,4.404-7.999,9.624-10.546,15.401H79.23V44.94h260.943
	c-0.198,1.809-0.306,3.645-0.306,5.506c0,1.862,0.109,3.697,0.306,5.507H119.219v14.769h224.917
	c2.547,5.778,6.137,10.996,10.546,15.4H72.695C53.024,86.121,37.02,70.117,37.02,50.445z M80.08,497.231v-396.34h300.784v150.227
	c-7.322-1.27-14.846-1.939-22.525-1.939c-19.862,0-38.703,4.438-55.598,12.36H129.973v14.769h148.502
	c-10.32,7.921-19.436,17.333-27.021,27.917H129.973v14.769h112.314c-4.671,8.765-8.378,18.118-10.978,27.917H129.973v14.769h98.32
	c-0.894,6.177-1.366,12.489-1.366,18.909c0,50.666,28.826,94.721,70.935,116.642L80.08,497.231L80.08,497.231z"/>
<path d="M437.749,310.378l-11.06,9.788c14.782,16.701,22.923,38.16,22.923,60.423c0,7.049-0.81,14.072-2.407,20.875l14.378,3.377
	c1.857-7.908,2.799-16.068,2.799-24.252C464.381,354.717,454.923,329.781,437.749,310.378z"/>
<path d="M439.01,423.257c-2.448,4.608-5.317,9.042-8.528,13.179l11.668,9.056c3.729-4.804,7.061-9.953,9.903-15.308L439.01,423.257z
	"/>
<path d="M269.399,360.033l-14.39-3.323c-1.8,7.79-2.712,15.825-2.712,23.879c0,19.218,5.218,38.054,15.09,54.478l12.658-7.609
	c-8.491-14.125-12.979-30.332-12.979-46.869C267.065,373.652,267.851,366.737,269.399,360.033z"/>
<polygon points="338.8,304.919 357.323,323.441 375.846,304.919 357.323,286.13 "/>
<rect x="344.094" y="337.733" width="26.197" height="125.43"/>
<g>
</g>
<g>
</g>
<g>
</g>
<g>
</g>
<g>
</g>
<g>
</g>
<g>
</g>
<g>
</g>
<g>
</g>
<g>
</g>
<g>
</g>
<g>
</g>
<g>
</g>
<g>
</g>
<g>
</g>
</svg>
