<?xml version="1.0" encoding="iso-8859-1"?>
<!-- Generator: Adobe Illustrator 19.0.0, SVG Export Plug-In . SVG Version: 6.00 Build 0)  -->
<svg version="1.1" id="Layer_1" xmlns="http://www.w3.org/2000/svg" xmlns:xlink="http://www.w3.org/1999/xlink" x="0px" y="0px"
	 viewBox="0 0 512 512" style="enable-background:new 0 0 512 512;" xml:space="preserve">
<path style="fill:#D1AB0D;" d="M278.479,308.354c0,32.63-26.457,59.087-59.087,59.087c-20.283,0-38.174-10.22-48.817-25.787
	c-6.479-9.482-10.27-20.953-10.27-33.3c0-32.63,26.457-59.077,59.087-59.077c12.347,0,23.798,3.791,33.28,10.26
	C268.249,270.171,278.479,288.071,278.479,308.354z"/>
<path style="fill:#F8CE19;" d="M262.932,292.817c0,32.63-26.447,59.087-59.087,59.087c-12.337,0-23.798-3.781-33.27-10.25
	c-6.479-9.482-10.27-20.953-10.27-33.3c0-32.63,26.457-59.077,59.087-59.077c12.347,0,23.798,3.791,33.28,10.26
	C259.141,269.019,262.932,280.47,262.932,292.817z"/>
<circle style="fill:#F9D84E;" cx="215.394" cy="304.039" r="32.863"/>
<path style="fill:#D1AB0D;" d="M172.14,444.723c0,32.63-26.457,59.087-59.087,59.087c-20.283,0-38.174-10.22-48.817-25.787
	c-6.479-9.482-10.27-20.953-10.27-33.3c0-32.63,26.457-59.077,59.087-59.077c12.347,0,23.798,3.791,33.28,10.26
	C161.91,406.54,172.14,424.44,172.14,444.723z"/>
<path style="fill:#F8CE19;" d="M156.593,429.186c0,32.63-26.447,59.087-59.087,59.087c-12.337,0-23.798-3.781-33.27-10.25
	c-6.479-9.482-10.27-20.953-10.27-33.3c0-32.63,26.457-59.077,59.087-59.077c12.347,0,23.798,3.791,33.28,10.26
	C152.802,405.388,156.593,416.839,156.593,429.186z"/>
<circle style="fill:#F9D84E;" cx="109.056" cy="440.409" r="32.863"/>
<path style="fill:#D1AB0D;" d="M125.863,221.708c0,32.63-26.457,59.087-59.087,59.087c-20.283,0-38.174-10.22-48.817-25.787
	c-6.479-9.482-10.27-20.953-10.27-33.3c0-32.63,26.457-59.077,59.087-59.077c12.347,0,23.798,3.791,33.28,10.26
	C115.633,183.524,125.863,201.425,125.863,221.708z"/>
<path style="fill:#F8CE19;" d="M110.316,206.171c0,32.63-26.447,59.087-59.087,59.087c-12.337,0-23.798-3.781-33.27-10.25
	c-6.479-9.482-10.27-20.953-10.27-33.3c0-32.63,26.457-59.077,59.087-59.077c12.347,0,23.798,3.791,33.28,10.26
	C106.526,182.372,110.316,193.824,110.316,206.171z"/>
<circle style="fill:#F9D84E;" cx="62.782" cy="217.383" r="32.863"/>
<path style="fill:#EAA96E;" d="M103.592,6.324l162.979,0.007L401.911,141.67h21.235l0.007-16.731l2.458-0.007l77.664,0.007v174.586
	l-77.664-0.007l-2.458,0.007v-16.974H315.321L187.474,154.704l1.65-1.734c1.998-2.11,4.226-4.087,6.628-5.876l2.131-1.587
	l9.74-7.275h-46.772c-11.307,0-22.126-4.344-29.687-11.906c-5.271-5.271-8.633-11.766-9.719-18.673l5.089-0.007l-6.05-7.903
	c-5.744-7.526-8.96-16.493-9.295-25.949l-0.077-2.095l-1.567-1.399c-0.647-0.578-1.288-1.177-1.9-1.789
	c-8.606-8.606-13.346-20.03-13.346-32.159l0.007-2.458h16.083l-3.008-6.892c-0.341-0.787-0.662-1.58-0.961-2.381
	c-1.88-5.055-2.834-10.367-2.827-15.833L103.592,6.324L103.592,6.324z"/>
<path style="fill:#FBCB99;" d="M203.881,150.112c0,0,21.027,0.056,43.111,13.549c24.773,15.136,70.235,51.12,68.1,51.942
	c0,0-61.12-75.346-70.563-77.399C235.086,136.152,203.881,150.112,203.881,150.112z"/>
<polygon style="fill:#C62E1E;" points="425.708,124.94 428.166,124.933 465.588,124.94 505.83,124.94 505.83,250.915 
	505.83,299.527 428.166,299.519 425.708,299.527 425.708,282.552 425.701,141.67 "/>
<circle style="fill:#F8CE19;" cx="467.515" cy="261.081" r="12.664"/>
<path style="fill:#EF4C35;" d="M465.588,124.94h40.242v102.931v23.045h-4.971c-19.474,0.007-35.264-15.783-35.264-35.25
	L465.588,124.94z"/>
<path style="fill:#FF7061;" d="M483.314,124.94h22.516v102.931c-13.18-5.103-22.516-17.907-22.516-32.876V124.94z"/>
<path style="fill:#EAA96E;" d="M198.306,147.095l2.131-1.587l4.4-1.546l109.654,109.654c7.04,7.04,15.338,12.698,24.465,16.678
	l28.102,12.258h-49.182L190.028,154.704l1.65-1.734C193.677,150.861,195.904,148.884,198.306,147.095z"/>
<path style="fill:#FBCB99;" d="M106.146,6.324l162.98,0.007L404.466,141.67h21.235l0.007-16.731l2.458-0.007v174.586l-2.458,0.007
	v-16.974h-31.525v-77.566c0-24.434-9.706-47.868-26.984-65.145L282.597,55.24c-16.533-16.533-38.734-26.161-62.103-26.934
	L108.972,24.62c-1.88-5.055-2.834-10.367-2.827-15.833V6.324H106.146z"/>
<path style="fill:#EAA96E;" d="M94.973,33.894h16.083c0,0,16.953,18.708,57.822,20.114c40.868,1.392,63.802-3.997,63.802-3.997
	s58.615,53.435,66.984,71.775c8.376,18.345,4.386,78.952,4.386,78.952l-63.718-61.324l-32.04-1.184h-46.772
	c-11.307,0-22.126-4.344-29.687-11.906c-5.271-5.271-8.633-11.766-9.719-18.673l5.089-0.007l-6.05-7.903
	c-5.744-7.526-8.96-16.493-9.295-25.949l-0.077-2.095l-1.567-1.399c-0.648-0.578-1.288-1.177-1.9-1.789
	c-8.606-8.606-13.346-20.03-13.346-32.159L94.973,33.894z"/>
<rect x="256.675" y="110.144" transform="matrix(-0.7071 -0.7071 0.7071 -0.7071 366.4801 386.8581)" width="13.372" height="14.769"/>
<g>
	<path style="fill:#FBCB99;" d="M116.707,74.802c0,0,18.722,20.739,34.881,23.97c19.011,3.803,76.095,9.056,76.095,9.056
		s-84.318,6.668-90.257,3.435S116.707,74.802,116.707,74.802z"/>
	<path style="fill:#FBCB99;" d="M109.543,36.671c0,0,6.068,15.712,20.224,23.088c14.156,7.377,97.916,12.259,97.916,12.259
		s-84.034,13.884-105.566-0.869c-21.533-14.753-23.128-31.9-23.128-31.9L109.543,36.671z"/>
</g>
<path d="M421.617,119.39v16.818h-14.413L271.123,0.126H100.309v7.385c0,7.228,1.532,14.103,4.271,20.329H90.968v7.385
	c0,15.015,6.571,28.518,16.982,37.805c0.381,10.855,4.188,20.85,10.378,28.937h-0.452c0,22.387,20.148,40.601,44.914,40.601h32.105
	c-2.585,1.926-5.032,4.075-7.299,6.464l-4.951,5.218l133.431,133.431h105.542v17.065H512V119.39H421.617z M227.406,71.125h-85.77
	c-17.265,0-31.722-12.25-35.136-28.514h7.987c9.224,9.586,22.169,15.57,36.491,15.57h79.652l53.598,53.598
	c10.379,10.379,16.095,24.178,16.095,38.856v29.314l-31.911-31.911c-0.681-0.681-1.377-1.342-2.085-1.984l-38.92-38.92h-68.833
	c-15.69,0-29.053-10.123-33.924-24.176c5.314,1.897,11.031,2.938,16.988,2.938h79.652l22.974,22.974l10.444-10.444L227.406,71.125z
	 M218.667,130.712l-2.216-2.913h-53.663c-9.527,0-18.03-3.81-23.558-9.743c5.964,2.472,12.494,3.845,19.342,3.845h62.716
	l9.656,9.656c-1.071-0.046-2.147-0.071-3.229-0.058c-2.681,0.035-5.327,0.266-7.928,0.664
	C219.088,131.263,218.677,130.724,218.667,130.712z M322.193,272.912L203.695,154.413c6.952-5.178,15.335-8.03,24.215-8.146
	c10.565-0.143,20.526,3.604,28.323,10.579l35.821,35.821l0.051-0.05l22.986,22.986v-64.97c0-18.623-7.253-36.131-20.421-49.299
	l-57.923-57.924h-85.77c-17.265,0-31.722-12.25-35.137-28.515h149.164l136.082,136.082h20.53v121.935H322.193z M497.231,289.977
	h-60.844v-2.296h0.056V136.208h-0.056v-2.049h60.844V289.977z"/>
<path d="M468.58,282.196c11.31,0,20.512-9.201,20.512-20.513c0-11.31-9.202-20.512-20.512-20.512s-20.513,9.202-20.513,20.512
	C448.068,272.993,457.27,282.196,468.58,282.196z M468.58,255.94c3.167,0,5.743,2.577,5.743,5.743s-2.577,5.743-5.743,5.743
	s-5.743-2.577-5.743-5.743S465.414,255.94,468.58,255.94z"/>
<path d="M115.288,377.656c-37.005,0-67.109,30.105-67.109,67.108s30.105,67.109,67.109,67.109s67.109-30.105,67.109-67.109
	C182.397,407.762,152.291,377.656,115.288,377.656z M115.288,497.105c-28.86,0-52.34-23.48-52.34-52.34
	c0-28.86,23.48-52.339,52.34-52.339s52.34,23.479,52.34,52.339C167.628,473.625,144.148,497.105,115.288,497.105z"/>
<path d="M129.22,441.334c-2.309-1.118-4.784-1.954-7.429-2.514c-2.644-0.558-5.12-1.117-7.428-1.676
	c-2.309-0.558-4.227-1.285-5.753-2.178c-1.527-0.894-2.29-2.309-2.29-4.245s0.763-3.239,2.29-3.91
	c1.526-0.671,3.369-1.005,5.53-1.005c7.356,0,13.425,2.309,18.208,6.926v-12.845c-1.786-1.973-6.143-3.426-13.069-4.357v-12.845
	c0-0.223-0.149-0.335-0.447-0.335h-9.718c-0.297,0-0.447,0.149-0.447,0.447v12.623c-2.309,0.857-4.636,2.113-6.981,3.77
	c-2.346,1.657-4.021,3.472-5.026,5.445c-1.005,1.973-1.508,4.432-1.508,7.373s0.763,5.455,2.29,7.54
	c2.705,3.693,7.117,6.226,13.237,7.596l7.484,1.676c2.293,0.514,4.207,1.163,5.741,1.949c1.534,0.786,2.301,1.96,2.301,3.525
	c0,2.788-1.773,4.724-5.321,5.808c-1.462,0.447-3.71,0.671-6.743,0.671c-4.245,0-8.08-1.005-11.505-3.016
	c-3.425-2.011-6.032-4.803-7.819-8.377v15.079c4.617,2.808,9.383,4.93,14.298,6.368l0.112,11.394
	c0.002,0.224,0.114,0.335,0.335,0.335h9.718c0.297,0,0.447-0.149,0.447-0.447v-10.5c6.33-2.108,10.971-5.026,13.921-8.758
	c2.411-3.048,3.616-6.049,3.616-9.003C137.262,448.098,134.582,443.929,129.22,441.334z"/>
<path d="M134.218,220.572c0-37.004-30.105-67.109-67.108-67.109C30.105,153.463,0,183.568,0,220.572s30.105,67.109,67.109,67.109
	C104.113,287.681,134.218,257.576,134.218,220.572z M14.769,220.572c0-28.86,23.48-52.34,52.34-52.34s52.339,23.48,52.339,52.34
	s-23.479,52.34-52.339,52.34S14.769,249.432,14.769,220.572z"/>
<path d="M71.546,257.912v-10.5c6.33-2.108,10.971-5.026,13.921-8.758c2.411-3.048,3.616-6.048,3.616-9.003
	c0-5.746-2.681-9.916-8.043-12.511c-2.309-1.118-4.784-1.954-7.428-2.514c-2.644-0.558-5.12-1.117-7.428-1.676
	c-2.309-0.558-4.226-1.285-5.753-2.178c-1.527-0.894-2.29-2.309-2.29-4.245s0.763-3.239,2.29-3.91
	c1.526-0.671,3.369-1.005,5.53-1.005c7.356,0,13.425,2.309,18.208,6.926v-12.845c-1.786-1.973-6.143-3.425-13.07-4.357v-12.845
	c0-0.224-0.149-0.335-0.447-0.335h-9.718c-0.297,0-0.447,0.149-0.447,0.447v12.623c-2.309,0.857-4.636,2.113-6.981,3.77
	c-2.346,1.657-4.021,3.472-5.026,5.445c-1.005,1.973-1.508,4.432-1.508,7.373c0,2.942,0.763,5.455,2.29,7.54
	c2.704,3.693,7.117,6.226,13.237,7.596l7.484,1.676c2.293,0.513,4.207,1.163,5.741,1.949c1.534,0.786,2.301,1.96,2.301,3.525
	c0,2.788-1.773,4.724-5.321,5.808c-1.462,0.447-3.71,0.671-6.743,0.671c-4.245,0-8.08-1.005-11.506-3.016
	c-3.425-2.011-6.032-4.803-7.819-8.377v15.079c4.617,2.808,9.383,4.93,14.298,6.368l0.112,11.392
	c0.002,0.224,0.114,0.335,0.335,0.335h9.718C71.397,258.359,71.546,258.21,71.546,257.912z"/>
<path d="M218.48,241.171c-37.005,0-67.109,30.105-67.109,67.108s30.105,67.109,67.109,67.109c37.004,0,67.108-30.105,67.108-67.109
	C285.589,271.275,255.484,241.171,218.48,241.171z M218.48,360.619c-28.86,0-52.34-23.48-52.34-52.34
	c0-28.86,23.48-52.339,52.34-52.339s52.339,23.479,52.339,52.339C270.819,337.14,247.34,360.619,218.48,360.619z"/>
<path d="M232.412,304.849c-2.309-1.118-4.784-1.954-7.429-2.514c-2.643-0.558-5.12-1.117-7.428-1.676
	c-2.309-0.558-4.226-1.285-5.753-2.178c-1.527-0.894-2.29-2.309-2.29-4.245s0.763-3.239,2.29-3.91
	c1.526-0.671,3.369-1.005,5.53-1.005c7.356,0,13.425,2.309,18.208,6.926v-12.845c-1.786-1.973-6.143-3.425-13.069-4.357V266.2
	c0-0.224-0.149-0.335-0.447-0.335h-9.718c-0.297,0-0.447,0.149-0.447,0.447v12.623c-2.309,0.857-4.636,2.113-6.981,3.77
	c-2.346,1.657-4.021,3.472-5.026,5.445c-1.005,1.973-1.508,4.432-1.508,7.373c0,2.941,0.763,5.455,2.29,7.54
	c2.705,3.693,7.117,6.226,13.237,7.596l7.484,1.676c2.293,0.513,4.207,1.163,5.741,1.949c1.534,0.786,2.301,1.96,2.301,3.525
	c0,2.788-1.773,4.724-5.321,5.808c-1.462,0.447-3.71,0.671-6.743,0.671c-4.245,0-8.08-1.005-11.505-3.017
	c-3.425-2.011-6.032-4.803-7.819-8.377v15.079c4.617,2.808,9.383,4.93,14.298,6.368l0.112,11.394
	c0.002,0.224,0.114,0.335,0.335,0.335h9.718c0.297,0,0.447-0.149,0.447-0.447v-10.5c6.33-2.108,10.971-5.026,13.921-8.758
	c2.411-3.048,3.617-6.048,3.617-9.003C240.454,311.613,237.774,307.443,232.412,304.849z"/>
<rect x="347.195" y="338.078" width="14.769" height="16.211"/>
<rect x="255.98" y="471.65" width="14.769" height="16.211"/>
<rect x="260.992" y="396.83" width="14.769" height="16.211"/>
<rect x="39.246" y="338.078" width="14.769" height="16.211"/>
<rect x="95.97" y="308.283" width="14.769" height="16.211"/>
<rect x="167.631" y="195.86" width="14.769" height="16.211"/>
<rect x="42.885" y="87.434" width="14.769" height="16.211"/>
<rect x="366.434" y="413.036" width="14.769" height="16.211"/>
<g>
</g>
<g>
</g>
<g>
</g>
<g>
</g>
<g>
</g>
<g>
</g>
<g>
</g>
<g>
</g>
<g>
</g>
<g>
</g>
<g>
</g>
<g>
</g>
<g>
</g>
<g>
</g>
<g>
</g>
</svg>
