<?xml version="1.0" encoding="iso-8859-1"?>
<!-- Generator: Adobe Illustrator 19.0.0, SVG Export Plug-In . SVG Version: 6.00 Build 0)  -->
<svg version="1.1" id="Layer_1" xmlns="http://www.w3.org/2000/svg" xmlns:xlink="http://www.w3.org/1999/xlink" x="0px" y="0px"
	 viewBox="0 0 512 512" style="enable-background:new 0 0 512 512;" xml:space="preserve">
<path style="fill:#AEB9CC;" d="M346.95,191.585v66.271H181.726v-66.271c0-37.983,30.795-68.777,68.777-68.777h27.666
	C316.155,122.809,346.95,153.604,346.95,191.585z"/>
<path style="fill:#C8D0E2;" d="M346.95,227.377v30.481H181.726v-30.481c0-37.983,30.795-68.777,68.777-68.777h27.666
	C316.155,158.6,346.95,189.394,346.95,227.377z"/>
<polygon style="fill:#FBCB99;" points="291.847,111.776 277.539,128.255 263.364,144.584 249.134,128.129 234.117,110.76 "/>
<path style="fill:#EAA96E;" d="M291.847,111.776l-14.306,16.479c-10.674,1.563-20.638,0.987-28.405-0.126l-15.017-17.369
	L291.847,111.776z"/>
<path style="fill:#FBCB99;" d="M312.03,67.013c0,11.051-3.579,21.262-9.649,29.547c-9.103,12.445-23.821,20.526-40.424,20.526
	c-24.11,0-44.241-17.035-49.009-39.728c-0.701-3.337-1.069-6.801-1.069-10.345c0-10.317,3.119-19.903,8.469-27.873
	c8.992-13.388,24.27-22.2,41.61-22.2c22.118,0,40.889,14.341,47.516,34.234C311.13,56.15,312.03,61.48,312.03,67.013z"/>
<path style="fill:#EAA96E;" d="M312.03,67.013c0,11.051-3.579,21.262-9.649,29.547c-1.664-8.759-5.269-18.967-10.972-27.44
	c0,0-35.664,17.128-78.463,8.239c-0.701-3.337-1.069-6.801-1.069-10.345c0-10.317,3.119-19.903,8.469-27.873
	c10.762-9.625,29.339-19.709,49.725-12.479c27.071,9.596,29.775,19.685,29.775,19.685s4.653,1.644,9.625,4.827
	C311.13,56.15,312.03,61.48,312.03,67.013z"/>
<path style="fill:#563939;" d="M310.922,92.357c0,0-0.276-2.413-0.919-6.152c-1.46-8.493-4.818-23.821-11.139-33.218
	c0,0-51.675,29.039-104.824,2.215c0,0,17.799-9.94,24.947-19.511c0.223-0.305,0.44-0.605,0.643-0.91
	c6.645-9.842,30.509-30.76,57.58-21.165c27.066,9.601,29.034,22.147,29.034,22.147s12.058,3.443,13.286,16.735
	C320.765,65.785,314.859,86.452,310.922,92.357z"/>
<path style="fill:#694B4B;" d="M310.003,86.205c-1.46-8.493-4.818-23.821-11.139-33.218c0,0-51.675,29.039-104.824,2.215
	c0,0,17.799-9.94,24.947-19.511c4.227-1.775,8.425-3.632,12.647-5.456c12.159-5.248,24.749-7.555,38.084-4.189
	c25.523,6.447,29.034,22.147,29.034,22.147s12.058,3.448,13.286,16.735C312.619,71.158,311.628,79.013,310.003,86.205z"/>
<polygon style="fill:#EF4C35;" points="249.887,166.529 249.887,221.981 262.963,235.057 277.008,221.012 277.008,167.621 
	262.824,147.523 "/>
<polygon style="fill:#AEB9CC;" points="308.731,133.531 301.002,141.444 275.435,167.62 268.137,155.987 262.821,147.524 
	257.719,155.997 250.015,168.8 225.333,140.825 217.507,131.955 231.103,109.493 262.43,144.762 294.154,110.871 "/>
<path style="fill:#C8D0E2;" d="M301.002,141.444l-25.567,26.176l-7.299-11.632l13.137-15.074
	C286.557,134.853,296.053,135.109,301.002,141.444L301.002,141.444z"/>
<rect x="215.532" y="394.998" style="fill:#3F2929;" width="79.074" height="110.021"/>
<g>
	<path style="fill:#563939;" d="M294.607,448.547v56.468h-44.603v-20.886c0-19.651,15.931-35.582,35.582-35.582H294.607z"/>
	<ellipse style="fill:#563939;" cx="255.458" cy="350.099" rx="248.074" ry="71.158"/>
</g>
<ellipse style="fill:#3F2929;" cx="255.458" cy="330.486" rx="248.074" ry="71.158"/>
<path style="fill:#563939;" d="M503.532,312.777c0,39.296-111.065,71.158-248.074,71.158c-70.036,0-133.297-8.33-178.412-21.721
	c-43.126-12.8-69.662-30.228-69.662-49.438c0-39.306,111.065-71.158,248.074-71.158c120.281,0,220.564,24.546,243.259,57.137
	C501.878,303.286,503.532,307.982,503.532,312.777z"/>
<path style="fill:#694B4B;" d="M503.532,312.777c0,39.296-111.065,71.158-248.074,71.158c-70.036,0-133.297-8.33-178.412-21.721
	c-3.161-4.529-4.815-9.226-4.815-14.021c0-39.296,111.074-71.158,248.074-71.158c70.036,0,133.297,8.33,178.412,21.721
	C501.878,303.286,503.532,307.982,503.532,312.777z"/>
<path style="fill:#C62E1E;" d="M216.161,440.702v61.132H35.418v-61.132c0-49.915,40.462-90.377,90.366-90.377
	c24.952,0,47.552,10.118,63.905,26.472C206.043,393.15,216.161,415.75,216.161,440.702z"/>
<path style="fill:#EF4C35;" d="M216.161,482.783v19.049H35.418v-19.049c0-49.915,40.462-90.366,90.366-90.366
	c24.952,0,47.552,10.107,63.905,26.461C206.043,435.232,216.161,457.82,216.161,482.783z"/>
<path style="fill:#F8CE19;" d="M183.52,287.484c0,33.006-26.749,59.755-59.745,59.755c-33.006,0-59.755-26.749-59.755-59.755
	c0-5.792,0.821-11.383,2.363-16.675c7.211-24.885,30.177-43.07,57.392-43.07c27.204,0,50.17,18.184,57.381,43.07
	C182.699,276.101,183.52,281.692,183.52,287.484z"/>
<path style="fill:#D1AB0D;" d="M181.157,268.59c-7.211,24.885-30.177,43.07-57.381,43.07c-27.216,0-50.181-18.184-57.392-43.07
	c7.211-24.885,30.177-43.07,57.392-43.07C150.98,225.52,173.946,243.705,181.157,268.59z"/>
<path style="fill:#3C6F99;" d="M478.507,440.702v61.132H297.764v-61.132c0-49.915,40.462-90.377,90.366-90.377
	c24.952,0,47.552,10.118,63.905,26.472C468.388,393.15,478.507,415.75,478.507,440.702z"/>
<path style="fill:#6598CB;" d="M478.507,482.783v19.049H297.764v-19.049c0-49.915,40.462-90.366,90.366-90.366
	c24.952,0,47.552,10.107,63.905,26.461C468.388,435.232,478.507,457.82,478.507,482.783z"/>
<path style="fill:#FBCB99;" d="M445.866,287.484c0,33.006-26.749,59.755-59.744,59.755c-33.006,0-59.755-26.749-59.755-59.755
	c0-5.792,0.821-11.383,2.363-16.675c7.211-24.885,30.177-43.07,57.392-43.07c27.204,0,50.17,18.184,57.381,43.07
	C445.046,276.101,445.866,281.692,445.866,287.484z"/>
<path style="fill:#EAA96E;" d="M443.503,268.59c-7.211,24.885-30.177,43.07-57.381,43.07c-27.216,0-50.181-18.184-57.392-43.07
	c7.211-24.885,30.177-43.07,57.392-43.07C413.326,225.52,436.292,243.705,443.503,268.59z"/>
<path d="M448.57,261.657c-9.997-24.201-33.842-41.28-61.611-41.28c-10.461,0-20.362,2.429-29.18,6.744v-22.786
	c0-32.364-16.838-61.984-43.085-79.024c0,0-9.914-15.039-10.214-15.495c0,0,3.084-2.907,3.632-3.476
	c11.626-12.058,18.407-29.192,20.49-45.664c0.635-5.027,0.666-10.17-0.378-15.146c-0.558-2.662-1.438-5.26-2.69-7.677
	c-3.382-6.527-8.365-9.616-11.586-11.006c-7.997-10.581-16.156-17.211-26.218-21.359c-26.479-10.918-54.857-3.61-72.298,18.611
	c-11.073,14.108-28.697,22.124-28.863,22.199l-15.542,6.921l15.67,6.625c5.057,2.139,9.998,3.947,14.816,5.47
	c0.717,17.728,8.88,33.561,21.442,44.465l-10.217,15.501c-26.277,17.007-43.104,46.568-43.104,79.055v33.209
	c-11.818-10.662-27.458-17.167-44.591-17.167c-27.769,0-51.615,17.079-61.611,41.28C24.985,274.177,0,291.309,0,312.737v37.661
	c0,15.087,12.576,28.784,36.777,40.446c-8.101,14.527-12.726,31.246-12.726,49.027v71.64h178.12h23.86h59.937h23.861h178.119v-71.64
	c0-17.781-4.626-34.5-12.726-49.027C499.424,379.182,512,365.485,512,350.398v-37.661C512,291.309,487.014,274.177,448.57,261.657z
	 M473.18,496.741h-26.72v-53.898H431.69v53.898h-89.463v-53.898h-14.769v53.898h-26.72v-56.87c0-47.542,38.679-86.221,86.221-86.221
	s86.221,38.679,86.221,86.221L473.18,496.741L473.18,496.741z M169.773,442.843v53.898H80.309v-53.898H65.54v53.898H38.82v-56.87
	c0-47.542,38.679-86.221,86.221-86.221s86.221,38.679,86.221,86.221v56.87h-26.72v-53.898H169.773z M263.706,147.139
	L263.706,147.139L263.706,147.139z M264.565,163.523c-0.584,0.002-1.159,0.004-1.723,0.005l0.864-1.509L264.565,163.523z
	 M257.539,178.307c0.319,0.001,0.63,0.001,0.974,0.001c2.817,0,6.509-0.011,11.359-0.035v45.779l-6.167,5.978l-6.168-5.978
	L257.539,178.307L257.539,178.307z M278.555,158.234l-5.831-10.2l22.361-25.636l6.48,9.831L278.555,158.234z M295.905,110.224
	L295.905,110.224L295.905,110.224L295.905,110.224L295.905,110.224L295.905,110.224z M263.706,135.904l-10.232-11.73
	c3.331,0.553,6.746,0.856,10.232,0.856c3.466,0,6.885-0.299,10.236-0.861L263.706,135.904z M231.505,110.224L231.505,110.224
	L231.505,110.224L231.505,110.224z M254.688,148.034l-5.832,10.201l-23.011-26.005l6.48-9.83L254.688,148.034z M497.231,312.737
	c0,10.457-16.075,26.012-60.509,39.282c-5.162-2.935-10.608-5.427-16.284-7.427c19.809-11.563,33.157-33.035,33.157-57.578
	c0-2.75-0.187-5.457-0.512-8.12C485.17,290.801,497.231,303.681,497.231,312.737z M320.322,287.013
	c0,24.544,13.348,46.016,33.157,57.578c-15.958,5.624-30.095,15.143-41.253,27.421c-18.212,1.163-37.046,1.764-56.226,1.764
	s-38.013-0.602-56.226-1.764c-11.158-12.277-25.295-21.796-41.252-27.421c19.809-11.562,33.157-33.035,33.157-57.578
	c0-11.727-3.056-22.749-8.397-32.331c23.239-1.964,47.685-2.984,72.719-2.984s49.48,1.02,72.719,2.984
	C323.378,264.264,320.322,275.286,320.322,287.013z M211.303,387.404c14.851,0.756,29.829,1.141,44.697,1.141
	c14.868,0,29.846-0.386,44.697-1.141c-4.423,7.245-7.954,15.089-10.452,23.378c-11.256,0.431-22.689,0.655-34.245,0.655
	c-11.555,0-22.989-0.224-34.246-0.655C219.257,402.494,215.726,394.649,211.303,387.404z M438.826,287.013
	c0,28.6-23.267,51.868-51.868,51.868s-51.868-23.267-51.868-51.868s23.267-51.868,51.868-51.868
	C415.559,235.145,438.826,258.413,438.826,287.013z M176.909,287.013c0,28.6-23.267,51.868-51.868,51.868
	s-51.868-23.267-51.868-51.868s23.267-51.868,51.868-51.868S176.909,258.413,176.909,287.013z M91.561,344.592
	c-5.675,2-11.121,4.492-16.284,7.427c-44.433-13.271-60.509-28.826-60.509-39.282c0-9.056,12.061-21.935,44.148-33.844
	c-0.325,2.664-0.512,5.37-0.512,8.12C58.404,311.558,71.753,333.029,91.561,344.592z M14.769,339.567
	C25.247,348.438,40.825,356.158,60,362.68c-5.542,4.677-10.574,9.938-15.003,15.688c-21.726-10.142-30.229-20.4-30.229-27.97
	V339.567z M452,362.68c19.175-6.522,34.754-14.241,45.231-23.113v10.831c0,7.57-8.503,17.828-30.228,27.97
	C462.574,372.617,457.542,367.357,452,362.68z M343.009,204.334v32.653c-1.411,1.242-2.768,2.541-4.069,3.896
	c-6.469-0.627-13.002-1.184-19.584-1.662v-32.133h-14.769v31.189c-8.983-0.497-18.018-0.858-27.056-1.079l7.112-6.893v-56.663
	l28.006-31.649C331.327,156.746,343.009,179.586,343.009,204.334z M227.049,33.218c13.246-16.877,34.856-22.401,55.052-14.077
	c8.067,3.326,14.426,8.778,21.262,18.23l1.672,2.311l2.665,0.561c0.474,0.141,3.13,1.079,4.89,4.743
	c1.201,2.501,2.371,7.164,1.164,15.203c-2.248-5.793-5.007-11.237-8.239-14.621l-4.261-4.423l-5.138,3.357
	c-0.106,0.07-10.852,6.996-28.931,10.632c-19.558,3.934-39.761,2.72-60.247-3.594C213.406,47.135,220.941,41.001,227.049,33.218z
	 M216.672,69.268c39.503,8.158,68.743-2.726,81.123-8.842c3.119,6.368,6.124,16.698,7.867,24.601
	c-8.197,15.42-24.35,25.234-41.956,25.234C239.725,110.261,219.851,92.39,216.672,69.268z M214.746,141.972l28.024,31.67v56.663
	l6.86,6.649c-8.925,0.065-17.877,0.269-26.805,0.606v-30.472h-14.769v31.153c-7.939,0.434-15.836,0.976-23.653,1.623v-35.529
	C184.402,179.503,196.062,156.7,214.746,141.972z M226.031,496.741v-56.87c0-4.816-0.347-9.551-1.001-14.188
	c10.204,0.348,20.542,0.524,30.97,0.524c10.428,0,20.767-0.176,30.97-0.524c-0.655,4.638-1.001,9.374-1.001,14.188v56.87H226.031z"
	/>
<rect x="439.522" y="163.987" width="14.769" height="16.337"/>
<rect x="417.979" y="82.313" width="14.769" height="16.336"/>
<rect x="466.816" y="31.527" width="14.769" height="16.336"/>
<rect x="354.639" y="112.905" width="14.769" height="16.337"/>
<rect x="365.194" y="8.202" width="14.769" height="16.337"/>
<rect x="57.462" y="163.987" width="14.769" height="16.337"/>
<rect x="79.015" y="82.313" width="14.769" height="16.336"/>
<rect x="30.176" y="31.527" width="14.769" height="16.336"/>
<rect x="142.356" y="112.905" width="14.769" height="16.337"/>
<rect x="131.791" y="8.202" width="14.769" height="16.337"/>
<g>
</g>
<g>
</g>
<g>
</g>
<g>
</g>
<g>
</g>
<g>
</g>
<g>
</g>
<g>
</g>
<g>
</g>
<g>
</g>
<g>
</g>
<g>
</g>
<g>
</g>
<g>
</g>
<g>
</g>
</svg>
